<svg width="2180" height="1453" viewBox="0 0 2180 1453" fill="none" xmlns="http://www.w3.org/2000/svg">
<path d="M2180 0H0.517517V1452.99H2180V0Z" fill="#3D4460"/>
<path d="M2180 431.151C2110.54 298.288 2076.21 149.87 2080.27 0L1734.79 0C1725.1 39.2714 1717.72 78.9757 1716.81 119.322C1715.38 182.565 1731.55 248.595 1773.98 295.517C1813.54 339.27 1871.11 361.974 1916.36 399.81C1996.18 466.56 2030.3 574.68 2036.22 678.56C2042.15 782.44 2023.95 886.032 2018.32 989.927C2015.15 1048.54 2016.2 1108.64 2035.81 1163.97C2055.41 1219.29 2096.28 1269.67 2152 1288.1C2161.09 1291.08 2170.48 1293.05 2180 1293.96V431.151Z" fill="#363E56"/>
<path d="M1122.31 0C1081.11 174.399 1126.3 367.772 1242.27 504.707C1301.03 574.081 1375.33 628.476 1438.72 693.66C1502.11 758.843 1556.3 840.58 1558.7 931.461C1560.7 1007.44 1526.34 1079.5 1487.32 1144.72C1448.3 1209.94 1403.3 1272.9 1380.12 1345.28C1368.79 1380 1364.28 1416.57 1366.82 1452.99H1842.87C1886.75 1367.15 1887.38 1265.06 1886.71 1167.98C1886.02 1065.69 1885.26 962.794 1866.7 862.212C1848.14 761.63 1810.62 662.473 1744 584.866C1687.4 518.935 1612.34 471.184 1553.76 407.02C1455.03 298.871 1410.5 144.328 1433.26 0H1122.31Z" fill="#363E56"/>
<path d="M362.495 0C307.264 133.262 270.149 288.253 248.979 430.956C239.883 492.272 237.628 564.187 283.632 605.728C327.268 645.133 393.728 638.827 451.249 651.017C545.528 670.993 621.705 746.534 660.067 834.942C698.428 923.351 703.093 1023.1 692.904 1118.93C682.716 1214.77 658.387 1308.45 640.745 1403.19C637.74 1419.33 635.116 1436.13 633.587 1453H1064.83C1086.8 1410.15 1096.44 1362.18 1105.13 1314.8C1123.88 1212.54 1139.42 1107.73 1123.77 1004.94C1108.13 902.146 1056.85 800.236 968.126 746.014C910.809 710.994 839.046 695.74 796.029 644.162C756.324 596.548 751.198 528.76 759.3 467.296C767.402 405.831 786.808 345.869 789.357 283.928C793.849 174.914 739.717 66.7764 654.072 0H362.495Z" fill="#363E56"/>
<path d="M463.283 999.008C406.639 967.106 332.569 982.897 275.324 952.082C209.358 916.577 187.936 832.214 186.227 757.324C184.518 682.434 195.139 604.295 166.571 535.051C138.804 467.752 71.9842 420.722 0.517517 409.795V1452.99H476.92C525.549 1382.23 543.813 1291.55 545.847 1204.53C547.661 1126.86 530.966 1037.14 463.283 999.008Z" fill="#363E56"/>
</svg>
